{"title":"The Hobbit An Unexpected Journey - Extended ENG ITA BDRip 1080p","uid":9380612,"size":15029264482,"categoryP":"video","categoryS":"hd___movies","magnet":"?xt=urn:btih:1e041f370406dd011bc94534074bce2ecae7849c&amp;dn=The+Hobbit+An+Unexpected+Journey+-+Extended+ENG+ITA+BDRip+1080p&amp;tr=udp%3A%2F%2Ftracker.openbittorrent.com%3A80&amp;tr=udp%3A%2F%2Fopen.demonii.com%3A1337&amp;tr=udp%3A%2F%2Ftracker.coppersurfer.tk%3A6969&amp;tr=udp%3A%2F%2Fexodus.desync.com%3A6969","seeders":21,"leechers":6,"uploader":"ZMachTNT","files":-1,"time":1387706936,"description":".: Title :.\n\nThe Hobbit An Unexpected Journey Extended Edition + Director's Commentary\n\nLo Hobbit Un Viaggio Inaspettato Versione Estesa + Commento del Regista\n\n.: Original Release :.\n &lt;a href=&quot;\nhttp://forum.tntvillage.scambioetico.org/index.php?showtopic=375130&quot; rel=&quot;nofollow&quot; target=&quot;_NEW&quot;&gt;\nhttp://forum.tntvillage.scambioetico.org/index.php?showtopic=375130&lt;/a&gt;\n\n.: Related Release :.\n\nThe Hobbit An Unexpected Journey Appendices ENG.ITA AC3 BDRip 1080p X264 &lt;a href=&quot;\nhttp://thepiratebay.se/torrent/9373816/&quot; rel=&quot;nofollow&quot; target=&quot;_NEW&quot;&gt;\nhttp://thepiratebay.se/torrent/9373816/&lt;/a&gt;\n \n.: Mediainfo :.\n\nGeneral\nUnique ID                                : 249098735329469748086578043881081399746 (0xBB66ABDD766F4D6197E69FE97889E9C2)\nComplete name                            : H:The.Hobbit.An.Unexpected.Journey.Extended.ITA.ENG.AC3.BDRip.1080p.X264-ZMachine.mkv\nFormat                                   : Matroska\nFormat version                           : Version 4 / Version 2\nFile size                                : 14.0 GiB\nDuration                                 : 3h 2mn\nOverall bit rate mode                    : Variable\nOverall bit rate                         : 11.0 Mbps\nMovie name                               : The.Hobbit.An.Unexpected.Journey.Extended.ITA.ENG.AC3.BDRip.1080p.X264-ZMachine\nEncoded date                             : UTC 2013-12-11 21:54:29\nWriting application                      : mkvmerge v6.5.0 ('Isn't she lovely') built on Oct 20 2013 12:50:05\nWriting library                          : libebml v1.3.0 + libmatroska v1.4.1\n\nVideo\nID                                       : 1\nFormat                                   : AVC\nFormat/Info                              : Advanced Video Codec\nFormat profile                           : &lt;a class=&quot;__cf_email__&quot; href=&quot;/cdn-cgi/l/email-protection&quot; data-cfemail=&quot;571f3e303f171b637967&quot;&gt;[email&amp;#160;protected]&lt;/a&gt;&lt;script cf-hash='f9e31' type=&quot;text/javascript&quot;&gt;\n/* &lt;![CDATA[ */!function(){try{var t=&quot;currentScript&quot;in document?document.currentScript:function(){for(var t=document.getElementsByTagName(&quot;script&quot;),e=t.length;e--;)if(t[e].getAttribute(&quot;cf-hash&quot;))return t[e]}();if(t&amp;&amp;t.previousSibling){var e,r,n,i,c=t.previousSibling,a=c.getAttribute(&quot;data-cfemail&quot;);if(a){for(e=&quot;&quot;,r=parseInt(a.substr(0,2),16),n=2;a.length-n;n+=2)i=parseInt(a.substr(n,2),16)^r,e+=String.fromCharCode(i);e=document.createTextNode(e),c.parentNode.replaceChild(e,c)}}}catch(u){}}();/* ]]&gt; */&lt;/script&gt;\nFormat settings, CABAC                   : Yes\nFormat settings, ReFrames                : 4 frames\nCodec ID                                 : V_MPEG4/ISO/AVC\nDuration                                 : 3h 2mn\nBit rate                                 : 10 000 Kbps\nWidth                                    : 1 920 pixels\nHeight                                   : 1 080 pixels\nDisplay aspect ratio                     : 16:9\nFrame rate mode                          : Constant\nFrame rate                               : 23.976 fps\nColor space                              : YUV\nChroma subsampling                       : 4:2:0\nBit depth                                : 8 bits\nScan type                                : Progressive\nBits/(Pixel*Frame)                       : 0.201\nStream size                              : 12.4 GiB (89%)\nTitle                                    : The Hobbit: An Unexpected Journey H.264 Ripped By ZMachine\nWriting library                          : x264 core 123 r2189 35cf912\nEncoding settings                        : cabac=1 / ref=3 / deblock=1:0:0 / analyse=0x3:0x133 / me=umh / subme=9 / psy=1 / psy_rd=1.00:0.00 / mixed_ref=1 / me_range=16 / chroma_me=1 / trellis=1 / 8x8dct=1 / cqm=0 / deadzone=21,11 / fast_pskip=1 / chroma_qp_offset=-2 / threads=12 / sliced_threads=0 / nr=0 / decimate=1 / interlaced=0 / bluray_compat=0 / constrained_intra=1 / bframes=3 / b_pyramid=2 / b_adapt=1 / b_bias=0 / direct=1 / weightb=1 / open_gop=0 / weightp=2 / keyint=250 / keyint_min=25 / scenecut=40 / intra_refresh=0 / rc_lookahead=40 / rc=2pass / mbtree=1 / bitrate=10000 / ratetol=1.0 / qcomp=0.60 / qpmin=11 / qpmax=51 / qpstep=4 / cplxblur=20.0 / qblur=0.5 / ip_ratio=1.40 / aq=1:1.00\nDefault                                  : Yes\nForced                                   : No\n\nAudio #1\nID                                       : 2\nFormat                                   : AC-3\nFormat/Info                              : Audio Coding 3\nMode extension                           : CM (complete main)\nFormat settings, Endianness              : Big\nCodec ID                                 : A_AC3\nDuration                                 : 3h 2mn\nBit rate mode                            : Constant\nBit rate                                 : 448 Kbps\nChannel(s)                               : 6 channels\nChannel positions                        : Front: L C R, Side: L R, LFE\nSampling rate                            : 48.0 KHz\nBit depth                                : 16 bits\nCompression mode                         : Lossy\nStream size                              : 585 MiB (4%)\nTitle                                    : Audio AC3\nLanguage                                 : Italian\nDefault                                  : Yes\nForced                                   : Yes\n\nAudio #2\nID                                       : 3\nFormat                                   : AC-3\nFormat/Info                              : Audio Coding 3\nMode extension                           : CM (complete main)\nFormat settings, Endianness              : Big\nCodec ID                                 : A_AC3\nDuration                                 : 3h 2mn\nBit rate mode                            : Constant\nBit rate                                 : 448 Kbps\nChannel(s)                               : 6 channels\nChannel positions                        : Front: L C R, Side: L R, LFE\nSampling rate                            : 48.0 KHz\nBit depth                                : 16 bits\nCompression mode                         : Lossy\nStream size                              : 585 MiB (4%)\nTitle                                    : Audio AC3\nLanguage                                 : English\nDefault                                  : No\nForced                                   : No\n\nAudio #3\nID                                       : 4\nFormat                                   : Vorbis\nFormat settings, Floor                   : 1\nCodec ID                                 : A_VORBIS\nDuration                                 : 3h 2mn\nBit rate mode                            : Variable\nBit rate                                 : 100.0 Kbps\nChannel(s)                               : 2 channels\nSampling rate                            : 48.0 KHz\nCompression mode                         : Lossy\nStream size                              : 131 MiB (1%)\nTitle                                    : Director's Commentary\nWriting library                          : libVorbis 1.1.1/1.1.2 (UTC 2005-03-04)\nLanguage                                 : English\nDefault                                  : No\nForced                                   : No\n\nText #1\nID                                       : 5\nFormat                                   : ASS\nCodec ID                                 : S_TEXT/ASS\nCodec ID/Info                            : Advanced Sub Station Alpha\nCompression mode                         : Lossless","torrent":{"xt":"urn:btih:1e041f370406dd011bc94534074bce2ecae7849c","amp;dn":"The+Hobbit+An+Unexpected+Journey+-+Extended+ENG+ITA+BDRip+1080p","amp;tr":["udp%3A%2F%2Ftracker.openbittorrent.com%3A80","udp%3A%2F%2Fopen.demonii.com%3A1337","udp%3A%2F%2Ftracker.coppersurfer.tk%3A6969","udp%3A%2F%2Fexodus.desync.com%3A6969"],"infoHash":"1e041f370406dd011bc94534074bce2ecae7849c","infoHashBuffer":{"type":"Buffer","data":[30,4,31,55,4,6,221,1,27,201,69,52,7,75,206,46,202,231,132,156]},"announce":[],"urlList":[]}}